<?xml version="1.0" encoding="UTF-8"?>
<!DOCTYPE svg PUBLIC "-//W3C//DTD SVG 1.1//EN" "http://www.w3.org/Graphics/SVG/1.1/DTD/svg11.dtd">
<svg xmlns="http://www.w3.org/2000/svg" version="1.1" width="340px" height="321px" style="shape-rendering:geometricPrecision; text-rendering:geometricPrecision; image-rendering:optimizeQuality; fill-rule:evenodd; clip-rule:evenodd" xmlns:xlink="http://www.w3.org/1999/xlink">
<g><path style="opacity:0.613" fill="#e51a1a" d="M 1.5,0.5 C 6.0726,0.975652 6.5726,2.64232 3,5.5C 0.389426,4.50009 -0.110574,2.83342 1.5,0.5 Z"/></g>
<g><path style="opacity:1" fill="#010000" d="M 339.5,211.5 C 339.5,247.833 339.5,284.167 339.5,320.5C 263.167,320.5 186.833,320.5 110.5,320.5C 110.5,284.167 110.5,247.833 110.5,211.5C 186.833,211.5 263.167,211.5 339.5,211.5 Z"/></g>
<g><path style="opacity:1" fill="#5d1c72" d="M 221.5,263.5 C 221.662,261.473 221.495,259.473 221,257.5C 220.392,259.066 219.558,260.4 218.5,261.5C 219.359,251.288 224.692,246.622 234.5,247.5C 232.91,249.68 231.576,252.013 230.5,254.5C 229.253,252.994 229.253,251.494 230.5,250C 228.299,249.175 226.466,249.675 225,251.5C 222.994,254.536 222.16,257.869 222.5,261.5C 224.199,261.34 225.866,261.506 227.5,262C 225.414,262.315 223.414,262.815 221.5,263.5 Z"/></g>
<g><path style="opacity:1" fill="#070108" d="M 209.5,251.5 C 208.662,251.842 208.328,252.508 208.5,253.5C 207.076,255.515 206.41,257.848 206.5,260.5C 205.379,262.954 204.546,265.621 204,268.5C 202.951,266.382 201.451,264.716 199.5,263.5C 200.814,257.832 203.814,253.166 208.5,249.5C 209.298,249.957 209.631,250.624 209.5,251.5 Z"/></g>
<g><path style="opacity:1" fill="#611e74" d="M 275.5,252.5 C 276.5,252.5 277.5,252.5 278.5,252.5C 278.803,255.588 277.47,257.254 274.5,257.5C 274.629,255.784 274.962,254.117 275.5,252.5 Z"/></g>
<g><path style="opacity:1" fill="#481752" d="M 208.5,253.5 C 208.59,256.152 207.924,258.485 206.5,260.5C 206.41,257.848 207.076,255.515 208.5,253.5 Z"/></g>
<g><path style="opacity:1" fill="#822996" d="M 211.5,256.5 C 209.723,259.505 208.723,262.838 208.5,266.5C 208.5,266.833 208.5,267.167 208.5,267.5C 207.833,267.5 207.5,267.833 207.5,268.5C 207.167,268.5 206.833,268.5 206.5,268.5C 206.5,265.833 206.5,263.167 206.5,260.5C 207.924,258.485 208.59,256.152 208.5,253.5C 208.328,252.508 208.662,251.842 209.5,251.5C 210.097,251.265 210.43,250.765 210.5,250C 209.944,248.989 209.278,248.156 208.5,247.5C 210.297,246.27 212.297,245.604 214.5,245.5C 213.8,249.237 212.8,252.904 211.5,256.5 Z"/></g>
<g><path style="opacity:1" fill="#46164e" d="M 258.5,258.5 C 259.947,257.115 260.947,257.448 261.5,259.5C 260.609,258.89 259.609,258.557 258.5,258.5 Z"/></g>
<g><path style="opacity:1" fill="#521a5e" d="M 208.5,247.5 C 209.278,248.156 209.944,248.989 210.5,250C 210.43,250.765 210.097,251.265 209.5,251.5C 209.631,250.624 209.298,249.957 208.5,249.5C 203.814,253.166 200.814,257.832 199.5,263.5C 199.167,263.5 198.833,263.5 198.5,263.5C 198.167,262.5 197.5,261.833 196.5,261.5C 199.465,255.874 203.465,251.207 208.5,247.5 Z"/></g>
<g><path style="opacity:1" fill="#94309d" d="M 258.5,258.5 C 259.609,258.557 260.609,258.89 261.5,259.5C 261.715,261.179 261.048,262.179 259.5,262.5C 258.766,261.292 258.433,259.959 258.5,258.5 Z"/></g>
<g><path style="opacity:1" fill="#7b2977" d="M 196.5,261.5 C 197.5,261.833 198.167,262.5 198.5,263.5C 197.833,264.167 197.167,264.833 196.5,265.5C 195.404,268.032 194.071,270.365 192.5,272.5C 192.672,271.508 192.338,270.842 191.5,270.5C 191.962,268.243 192.962,266.243 194.5,264.5C 191.317,263.197 188.317,263.531 185.5,265.5C 184.833,265.5 184.5,265.167 184.5,264.5C 187.968,261.886 191.968,260.886 196.5,261.5 Z"/></g>
<g><path style="opacity:1" fill="#9d349b" d="M 221.5,263.5 C 220.224,265.562 219.39,267.896 219,270.5C 218.51,269.207 218.343,267.873 218.5,266.5C 218.5,265.5 218.5,264.5 218.5,263.5C 217.448,263.649 216.448,263.483 215.5,263C 216.737,262.768 217.737,262.268 218.5,261.5C 219.558,260.4 220.392,259.066 221,257.5C 221.495,259.473 221.662,261.473 221.5,263.5 Z"/></g>
<g><path style="opacity:1" fill="#622161" d="M 294.5,262.5 C 294.631,263.376 294.298,264.043 293.5,264.5C 292.468,262.96 291.135,262.46 289.5,263C 287.563,265.071 285.896,267.238 284.5,269.5C 286.19,265.488 285.523,264.822 282.5,267.5C 283.658,264.178 285.992,262.012 289.5,261C 291.535,260.401 293.201,260.901 294.5,262.5 Z"/></g>
<g><path style="opacity:1" fill="#341235" d="M 211.5,256.5 C 211.277,260.162 210.277,263.495 208.5,266.5C 208.723,262.838 209.723,259.505 211.5,256.5 Z"/></g>
<g><path style="opacity:1" fill="#4d1a4d" d="M 232.5,262.5 C 233.209,261.596 234.209,261.263 235.5,261.5C 235.737,262.791 235.404,263.791 234.5,264.5C 234.5,263.167 233.833,262.5 232.5,262.5 Z"/></g>
<g><path style="opacity:1" fill="#6a2467" d="M 261.5,259.5 C 262.434,260.568 262.768,261.901 262.5,263.5C 263.978,263.238 265.311,263.571 266.5,264.5C 265.675,265.386 264.675,265.719 263.5,265.5C 263.784,267.415 263.451,269.081 262.5,270.5C 261.833,268.167 261.167,265.833 260.5,263.5C 259.833,263.5 259.5,263.167 259.5,262.5C 261.048,262.179 261.715,261.179 261.5,259.5 Z"/></g>
<g><path style="opacity:1" fill="#752871" d="M 252.5,266.5 C 252.565,266.062 252.399,265.728 252,265.5C 251.292,266.381 250.458,267.047 249.5,267.5C 250.588,263.252 253.255,261.752 257.5,263C 255.677,263.997 254.01,265.164 252.5,266.5 Z"/></g>
<g><path style="opacity:1" fill="#531c4e" d="M 273.5,263.5 C 274.209,262.596 275.209,262.263 276.5,262.5C 276.072,265.785 275.072,268.785 273.5,271.5C 273.466,268.801 274.133,266.301 275.5,264C 274.906,263.536 274.239,263.369 273.5,263.5 Z"/></g>
<g><path style="opacity:1" fill="#13060f" d="M 294.5,262.5 C 295.167,262.833 295.833,263.167 296.5,263.5C 295.528,266.132 294.195,268.465 292.5,270.5C 289.987,274.858 286.987,278.858 283.5,282.5C 282.239,278.196 282.572,273.863 284.5,269.5C 285.896,267.238 287.563,265.071 289.5,263C 291.135,262.46 292.468,262.96 293.5,264.5C 294.298,264.043 294.631,263.376 294.5,262.5 Z"/></g>
<g><path style="opacity:1" fill="#0f050b" d="M 191.5,270.5 C 188.266,274.622 185.266,278.955 182.5,283.5C 181.504,283.586 180.671,283.252 180,282.5C 178.965,275.903 180.799,270.236 185.5,265.5C 188.317,263.531 191.317,263.197 194.5,264.5C 192.962,266.243 191.962,268.243 191.5,270.5 Z"/></g>
<g><path style="opacity:1" fill="#4e1a4d" d="M 218.5,261.5 C 217.737,262.268 216.737,262.768 215.5,263C 216.448,263.483 217.448,263.649 218.5,263.5C 218.5,264.5 218.5,265.5 218.5,266.5C 218.167,266.5 217.833,266.5 217.5,266.5C 217.179,264.952 216.179,264.285 214.5,264.5C 214.5,263.5 214.5,262.5 214.5,261.5C 215.833,261.5 217.167,261.5 218.5,261.5 Z"/></g>
<g><path style="opacity:1" fill="#933190" d="M 245.5,263.5 C 244.073,265.148 243.24,267.148 243,269.5C 242.503,266.854 242.336,264.187 242.5,261.5C 243.601,260.402 244.934,260.235 246.5,261C 245.748,261.671 245.414,262.504 245.5,263.5 Z"/></g>
<g><path style="opacity:1" fill="#581f4d" d="M 242.5,261.5 C 242.336,264.187 242.503,266.854 243,269.5C 243.24,267.148 244.073,265.148 245.5,263.5C 245.326,265.861 244.993,268.194 244.5,270.5C 243.5,270.5 242.5,270.5 241.5,270.5C 241.66,268.801 241.494,267.134 241,265.5C 238.143,269.898 235.309,274.232 232.5,278.5C 231.962,276.883 231.629,275.216 231.5,273.5C 232.167,271.833 232.833,270.167 233.5,268.5C 233.343,269.873 233.51,271.207 234,272.5C 235.886,268.042 238.719,264.375 242.5,261.5 Z"/></g>
<g><path style="opacity:1" fill="#983587" d="M 273.5,263.5 C 274.239,263.369 274.906,263.536 275.5,264C 274.133,266.301 273.466,268.801 273.5,271.5C 272.778,271.918 272.278,272.584 272,273.5C 271.503,271.19 271.337,268.857 271.5,266.5C 271.427,264.973 272.094,263.973 273.5,263.5 Z"/></g>
<g><path style="opacity:1" fill="#391632" d="M 168.5,268.5 C 169.919,267.549 171.585,267.216 173.5,267.5C 173.5,268.5 173.5,269.5 173.5,270.5C 171.315,270.704 169.315,271.37 167.5,272.5C 168.453,270.39 170.119,269.223 172.5,269C 171.207,268.51 169.873,268.343 168.5,268.5 Z"/></g>
<g><path style="opacity:1" fill="#67254f" d="M 184.5,264.5 C 184.5,265.167 184.833,265.5 185.5,265.5C 180.799,270.236 178.965,275.903 180,282.5C 180.671,283.252 181.504,283.586 182.5,283.5C 181.5,284.5 180.5,285.5 179.5,286.5C 175.661,277.821 177.328,270.488 184.5,264.5 Z"/></g>
<g><path style="opacity:1" fill="#632257" d="M 206.5,260.5 C 206.5,263.167 206.5,265.833 206.5,268.5C 205.029,270.216 204.029,272.216 203.5,274.5C 202.746,271.658 201.412,268.991 199.5,266.5C 198.675,265.614 197.675,265.281 196.5,265.5C 197.167,264.833 197.833,264.167 198.5,263.5C 198.833,263.5 199.167,263.5 199.5,263.5C 201.451,264.716 202.951,266.382 204,268.5C 204.546,265.621 205.379,262.954 206.5,260.5 Z"/></g>
<g><path style="opacity:1" fill="#4b1a41" d="M 231.5,264.5 C 231.326,266.861 230.993,269.194 230.5,271.5C 230.167,271.5 229.833,271.5 229.5,271.5C 229.41,268.848 230.076,266.515 231.5,264.5 Z"/></g>
<g><path style="opacity:1" fill="#9a368a" d="M 232.5,262.5 C 233.833,262.5 234.5,263.167 234.5,264.5C 233.566,265.568 233.232,266.901 233.5,268.5C 232.833,270.167 232.167,271.833 231.5,273.5C 231.167,272.833 230.833,272.167 230.5,271.5C 230.993,269.194 231.326,266.861 231.5,264.5C 231.328,263.508 231.662,262.842 232.5,262.5 Z"/></g>
<g><path style="opacity:1" fill="#91346e" d="M 284.5,269.5 C 282.572,273.863 282.239,278.196 283.5,282.5C 283.5,283.167 283.5,283.833 283.5,284.5C 281.983,284.489 280.816,283.823 280,282.5C 279.333,278.833 279.333,275.167 280,271.5C 280.608,269.934 281.442,268.6 282.5,267.5C 285.523,264.822 286.19,265.488 284.5,269.5 Z"/></g>
<g><path style="opacity:1" fill="#ae3f89" d="M 206.5,268.5 C 206.833,268.5 207.167,268.5 207.5,268.5C 207.167,271.167 206.833,273.833 206.5,276.5C 205.732,277.263 205.232,278.263 205,279.5C 204.768,278.263 204.268,277.263 203.5,276.5C 203.5,275.833 203.5,275.167 203.5,274.5C 204.029,272.216 205.029,270.216 206.5,268.5 Z"/></g>
<g><path style="opacity:1" fill="#953674" d="M 221.5,263.5 C 221.05,268.202 220.383,272.868 219.5,277.5C 218.852,279.498 218.019,281.498 217,283.5C 216.51,282.207 216.343,280.873 216.5,279.5C 217.43,275.6 217.763,271.6 217.5,267.5C 217.5,267.167 217.5,266.833 217.5,266.5C 217.833,266.5 218.167,266.5 218.5,266.5C 218.343,267.873 218.51,269.207 219,270.5C 219.39,267.896 220.224,265.562 221.5,263.5 Z"/></g>
<g><path style="opacity:1" fill="#a73c87" d="M 296.5,263.5 C 297.586,263.62 298.253,264.287 298.5,265.5C 298.154,266.849 297.821,268.183 297.5,269.5C 295.517,272.799 294.517,276.466 294.5,280.5C 293.833,278.5 293.167,276.5 292.5,274.5C 292.5,273.167 292.5,271.833 292.5,270.5C 294.195,268.465 295.528,266.132 296.5,263.5 Z"/></g>
<g><path style="opacity:1" fill="#541f41" d="M 217.5,267.5 C 217.763,271.6 217.43,275.6 216.5,279.5C 216.167,279.5 215.833,279.5 215.5,279.5C 215.851,275.316 216.518,271.316 217.5,267.5 Z"/></g>
<g><path style="opacity:1" fill="#9a3877" d="M 252.5,266.5 C 251.833,268.5 251.167,270.5 250.5,272.5C 249.679,275.641 249.179,278.975 249,282.5C 248.617,281.944 248.117,281.611 247.5,281.5C 245.767,276.409 246.434,271.742 249.5,267.5C 250.458,267.047 251.292,266.381 252,265.5C 252.399,265.728 252.565,266.062 252.5,266.5 Z"/></g>
<g><path style="opacity:1" fill="#7a2d57" d="M 271.5,266.5 C 271.337,268.857 271.503,271.19 272,273.5C 272.278,272.584 272.778,271.918 273.5,271.5C 273.158,278.735 272.158,285.735 270.5,292.5C 270.614,289.15 270.947,285.817 271.5,282.5C 271.415,280.667 270.748,279.334 269.5,278.5C 269.198,274.21 269.864,270.21 271.5,266.5 Z"/></g>
<g><path style="opacity:1" fill="#88316d" d="M 168.5,268.5 C 169.873,268.343 171.207,268.51 172.5,269C 170.119,269.223 168.453,270.39 167.5,272.5C 166.599,273.29 165.932,274.29 165.5,275.5C 164.778,275.918 164.278,276.584 164,277.5C 163.51,276.207 163.343,274.873 163.5,273.5C 164.167,270.833 165.833,269.167 168.5,268.5 Z"/></g>
<g><path style="opacity:1" fill="#973969" d="M 191.5,270.5 C 192.338,270.842 192.672,271.508 192.5,272.5C 190.812,277.226 188.145,281.226 184.5,284.5C 184.158,283.662 183.492,283.328 182.5,283.5C 185.266,278.955 188.266,274.622 191.5,270.5 Z"/></g>
<g><path style="opacity:1" fill="#6b284b" d="M 260.5,263.5 C 261.167,265.833 261.833,268.167 262.5,270.5C 261.737,275.528 259.737,280.028 256.5,284C 252.481,286.414 249.481,285.581 247.5,281.5C 248.117,281.611 248.617,281.944 249,282.5C 249.179,278.975 249.679,275.641 250.5,272.5C 250.335,275.518 250.502,278.518 251,281.5C 252.388,282.554 253.888,282.72 255.5,282C 259.27,276.42 260.937,270.253 260.5,263.5 Z"/></g>
<g><path style="opacity:1" fill="#5d2341" d="M 292.5,270.5 C 292.5,271.833 292.5,273.167 292.5,274.5C 292.372,278.881 292.705,283.215 293.5,287.5C 291.86,284.512 291.026,281.179 291,277.5C 289.264,280.739 286.764,283.073 283.5,284.5C 283.5,283.833 283.5,283.167 283.5,282.5C 286.987,278.858 289.987,274.858 292.5,270.5 Z"/></g>
<g><path style="opacity:1" fill="#431932" d="M 208.5,267.5 C 208.638,272.414 207.972,277.081 206.5,281.5C 206.5,279.833 206.5,278.167 206.5,276.5C 206.833,273.833 207.167,271.167 207.5,268.5C 207.5,267.833 207.833,267.5 208.5,267.5 Z"/></g>
<g><path style="opacity:1" fill="#9e3c64" d="M 292.5,274.5 C 293.167,276.5 293.833,278.5 294.5,280.5C 294.205,282.735 294.539,284.735 295.5,286.5C 295.577,287.75 296.244,288.583 297.5,289C 295.648,289.773 294.314,289.273 293.5,287.5C 292.705,283.215 292.372,278.881 292.5,274.5 Z"/></g>
<g><path style="opacity:1" fill="#9d3a6e" d="M 229.5,271.5 C 229.833,271.5 230.167,271.5 230.5,271.5C 230.833,272.167 231.167,272.833 231.5,273.5C 231.629,275.216 231.962,276.883 232.5,278.5C 231.989,280.195 231.322,281.861 230.5,283.5C 229.509,279.555 229.176,275.555 229.5,271.5 Z"/></g>
<g><path style="opacity:1" fill="#632543" d="M 297.5,269.5 C 295.978,275.045 295.312,280.712 295.5,286.5C 294.539,284.735 294.205,282.735 294.5,280.5C 294.517,276.466 295.517,272.799 297.5,269.5 Z"/></g>
<g><path style="opacity:1" fill="#572136" d="M 180.5,288.5 C 181.833,287.167 183.167,285.833 184.5,284.5C 186.435,285.709 188.435,285.542 190.5,284C 192.291,281.586 193.957,279.086 195.5,276.5C 196.568,278.187 196.401,279.854 195,281.5C 191.265,286.027 186.432,288.36 180.5,288.5 Z"/></g>
<g><path style="opacity:1" fill="#8f365c" d="M 203.5,276.5 C 204.268,277.263 204.768,278.263 205,279.5C 205.232,278.263 205.732,277.263 206.5,276.5C 206.5,278.167 206.5,279.833 206.5,281.5C 206.785,283.288 206.452,284.955 205.5,286.5C 204.914,286.291 204.414,285.957 204,285.5C 203.502,282.518 203.335,279.518 203.5,276.5 Z"/></g>
<g><path style="opacity:1" fill="#5e2435" d="M 269.5,278.5 C 269.81,281.713 269.477,284.713 268.5,287.5C 268.631,286.761 268.464,286.094 268,285.5C 265.715,289.187 264.548,293.187 264.5,297.5C 263.662,297.842 263.328,298.508 263.5,299.5C 262.197,291.722 264.197,284.722 269.5,278.5 Z"/></g>
<g><path style="opacity:1" fill="#5f243b" d="M 163.5,273.5 C 163.343,274.873 163.51,276.207 164,277.5C 164.278,276.584 164.778,275.918 165.5,275.5C 165.335,278.85 165.502,282.183 166,285.5C 167.145,286.636 168.312,287.636 169.5,288.5C 168.833,288.5 168.5,288.833 168.5,289.5C 165.909,288.746 164.076,287.079 163,284.5C 162.19,280.642 162.357,276.976 163.5,273.5 Z"/></g>
<g><path style="opacity:1" fill="#622634" d="M 215.5,280.5 C 215.5,281.833 215.5,283.167 215.5,284.5C 213.185,287.908 211.518,291.741 210.5,296C 210.836,297.03 211.503,297.53 212.5,297.5C 211.833,298.167 211.167,298.833 210.5,299.5C 208.559,297.989 208.059,295.989 209,293.5C 210.143,288.547 212.31,284.214 215.5,280.5 Z"/></g>
<g><path style="opacity:1" fill="#a3405b" d="M 182.5,283.5 C 183.492,283.328 184.158,283.662 184.5,284.5C 183.167,285.833 181.833,287.167 180.5,288.5C 176.469,290.371 172.469,290.704 168.5,289.5C 168.5,288.833 168.833,288.5 169.5,288.5C 173.032,288.69 176.365,288.023 179.5,286.5C 180.5,285.5 181.5,284.5 182.5,283.5 Z"/></g>
<g><path style="opacity:1" fill="#9e3e54" d="M 219.5,277.5 C 219.122,282.894 218.288,288.227 217,293.5C 216.21,297.128 214.043,299.128 210.5,299.5C 211.167,298.833 211.833,298.167 212.5,297.5C 214.373,293.485 215.373,289.151 215.5,284.5C 215.5,283.167 215.5,281.833 215.5,280.5C 215.5,280.167 215.5,279.833 215.5,279.5C 215.833,279.5 216.167,279.5 216.5,279.5C 216.343,280.873 216.51,282.207 217,283.5C 218.019,281.498 218.852,279.498 219.5,277.5 Z"/></g>
<g><path style="opacity:1" fill="#190b0d" d="M 268.5,287.5 C 268.196,290.522 267.696,293.522 267,296.5C 266.329,297.252 265.496,297.586 264.5,297.5C 264.548,293.187 265.715,289.187 268,285.5C 268.464,286.094 268.631,286.761 268.5,287.5 Z"/></g>
<g><path style="opacity:1" fill="#a64157" d="M 269.5,278.5 C 270.748,279.334 271.415,280.667 271.5,282.5C 270.947,285.817 270.614,289.15 270.5,292.5C 270.121,297.004 267.788,299.337 263.5,299.5C 263.328,298.508 263.662,297.842 264.5,297.5C 265.496,297.586 266.329,297.252 267,296.5C 267.696,293.522 268.196,290.522 268.5,287.5C 269.477,284.713 269.81,281.713 269.5,278.5 Z"/></g>
<g><path style="opacity:1" fill="#1d0d0f" d="M 215.5,284.5 C 215.373,289.151 214.373,293.485 212.5,297.5C 211.503,297.53 210.836,297.03 210.5,296C 211.518,291.741 213.185,287.908 215.5,284.5 Z"/></g>
</svg>
